/* XPM */
static char *c7299443203143229e38a8ce0e7ffa41CiHsByMFSmPj9Ugx[] = {
/* columns rows colors chars-per-pixel */
"72 72 10 1 ",
"  c #E8CFA6",
". c #E9D0A6",
"X c #E9CFA6",
"o c #E8D0A7",
"O c #E8D0A6",
"+ c #E6CBA1",
"@ c #E9CFA7",
"# c #E8CFA7",
"$ c #E9D0A7",
"% c white",
/* pixels */
"                                                                        ",
"                                                                        ",
"                                                                        ",
"                                                                     ...",
"                                                                     ...",
"                                                                     ...",
"                                                            XXX         ",
"                                                            XXX         ",
"                                                            XXX         ",
"                                                                        ",
"                                                                        ",
"                                                                        ",
"                                                            ooo         ",
"                                                            ooo         ",
"                                                            ooo         ",
"                                                            ooo         ",
"                                                            ooo         ",
"                                                            ooo         ",
"                                                            OOO      +++",
"                                                            OOO      +++",
"                                                            OOO      +++",
"                                                                  XXX   ",
"                                                                  XXX   ",
"                                                                  XXX   ",
"                                                   XXX            @@@   ",
"                                                   XXX            @@@   ",
"                                                   XXX            @@@   ",
"                                                XXX               @@@   ",
"                                                XXX               @@@   ",
"                                                XXX               @@@   ",
"                                                XXX               ###   ",
"                                                XXX               ###   ",
"                                                XXX               ###   ",
"                                             OOO                  ooo   ",
"                                             OOO                  ooo   ",
"                                             OOO                  ooo   ",
"                                                                        ",
"                                                                        ",
"                                                                        ",
"                                                                        ",
"                                                                        ",
"                                                                        ",
"                                                   ###                  ",
"                                                   ###                  ",
"                                                   ###                  ",
"                                                               OOO      ",
"                                                               OOO      ",
"                                                               OOO      ",
"                                                      $$$               ",
"                                                      $$$               ",
"                                                      $$$               ",
"                                                                        ",
"                                                                        ",
"                                                                        ",
"                                                                        ",
"                                                                        ",
"                                                                        ",
"                                                                        ",
"                                                                        ",
"                                                                        ",
"                                                                        ",
"                                                                        ",
"                                                                        ",
"                                                                        ",
"                                                                        ",
"                                                                        ",
"                                                                        ",
"                                                                        ",
"                                                                        ",
"                                                                        ",
"                                                                        ",
"                                                                        "
};
