/* XPM */
static char *_ed026eee129494ed7c99a493173e15b9acAc2stf42pbnHQ[] = {
/* columns rows colors chars-per-pixel */
"64 62 4 1 ",
"  c None",
". c #658CA1",
"X c #8CBFC2",
"o c #9BD4C3",
/* pixels */
"                                                                ",
"                                                                ",
"                                                                ",
"                                                                ",
"                                                                ",
"                                                                ",
"        ................................................        ",
"        ................................................        ",
"        ................................................        ",
"        ................................................        ",
"    ....XXXXXXXXXXXXXXXXXXXXXXXXXXXXXXXXXXXXXXXXXXXXXXXX....    ",
"    ....XXXXXXXXXXXXXXXXXXXXXXXXXXXXXXXXXXXXXXXXXXXXXXXX....    ",
"    ....XXXXXXXXXXXXXXXXXXXXXXXXXXXXXXXXXXXXXXXXXXXXXXXX....    ",
"    ....XXXXXXXXXXXXXXXXXXXXXXXXXXXXXXXXXXXXXXXXXXXXXXXX....    ",
"........XXXXooooooooooooXXXXXXXXXXXXXXXXooooooooooooXXXX........",
"........XXXXooooooooooooXXXXXXXXXXXXXXXXooooooooooooXXXX........",
"........XXXXooooooooooooXXXXXXXXXXXXXXXXooooooooooooXXXX........",
"........XXXXooooooooooooXXXXXXXXXXXXXXXXooooooooooooXXXX........",
"    ....XXXXooooXXXXooooXXXXXXXXXXXXXXXXooooXXXXooooXXXX....    ",
"    ....XXXXooooXXXXooooXXXXXXXXXXXXXXXXooooXXXXooooXXXX....    ",
"    ....XXXXooooXXXXooooXXXXXXXXXXXXXXXXooooXXXXooooXXXX....    ",
"    ....XXXXooooXXXXooooXXXXXXXXXXXXXXXXooooXXXXooooXXXX....    ",
"........XXXXooooooooXXXXXXXXooooooooXXXXXXXXooooooooXXXX........",
"........XXXXooooooooXXXXXXXXooooooooXXXXXXXXooooooooXXXX........",
"........XXXXooooooooXXXXXXXXooooooooXXXXXXXXooooooooXXXX........",
"........XXXXooooooooXXXXXXXXooooooooXXXXXXXXooooooooXXXX........",
"    ....XXXXXXXXXXXXXXXXooooooooooooooooXXXXXXXXXXXXXXXX....    ",
"    ....XXXXXXXXXXXXXXXXooooooooooooooooXXXXXXXXXXXXXXXX....    ",
"    ....XXXXXXXXXXXXXXXXooooooooooooooooXXXXXXXXXXXXXXXX....    ",
"    ....XXXXXXXXXXXXXXXXooooooooooooooooXXXXXXXXXXXXXXXX....    ",
"........XXXXXXXXXXXXooooooooooooooooooooooooXXXXXXXXXXXX........",
"........XXXXXXXXXXXXooooooooooooooooooooooooXXXXXXXXXXXX........",
"........XXXXXXXXXXXXooooooooooooooooooooooooXXXXXXXXXXXX........",
"........XXXXXXXXXXXXooooooooooooooooooooooooXXXXXXXXXXXX........",
"    ....XXXXXXXXXXXXXXXXooooooooooooooooXXXXXXXXXXXXXXXX....    ",
"    ....XXXXXXXXXXXXXXXXooooooooooooooooXXXXXXXXXXXXXXXX....    ",
"    ....XXXXXXXXXXXXXXXXooooooooooooooooXXXXXXXXXXXXXXXX....    ",
"    ....XXXXXXXXXXXXXXXXooooooooooooooooXXXXXXXXXXXXXXXX....    ",
"........XXXXooooooooXXXXXXXXooooooooXXXXXXXXooooooooXXXX........",
"........XXXXooooooooXXXXXXXXooooooooXXXXXXXXooooooooXXXX........",
"........XXXXooooooooXXXXXXXXooooooooXXXXXXXXooooooooXXXX........",
"........XXXXooooooooXXXXXXXXooooooooXXXXXXXXooooooooXXXX........",
"    ....XXXXooooXXXXooooXXXXXXXXXXXXXXXXooooXXXXooooXXXX....    ",
"    ....XXXXooooXXXXooooXXXXXXXXXXXXXXXXooooXXXXooooXXXX....    ",
"    ....XXXXooooXXXXooooXXXXXXXXXXXXXXXXooooXXXXooooXXXX....    ",
"    ....XXXXooooXXXXooooXXXXXXXXXXXXXXXXooooXXXXooooXXXX....    ",
"........XXXXooooooooooooXXXXXXXXXXXXXXXXooooooooooooXXXX........",
"........XXXXooooooooooooXXXXXXXXXXXXXXXXooooooooooooXXXX........",
"........XXXXooooooooooooXXXXXXXXXXXXXXXXooooooooooooXXXX........",
"........XXXXooooooooooooXXXXXXXXXXXXXXXXooooooooooooXXXX........",
"    ....XXXXXXXXXXXXXXXXXXXXXXXXXXXXXXXXXXXXXXXXXXXXXXXX....    ",
"    ....XXXXXXXXXXXXXXXXXXXXXXXXXXXXXXXXXXXXXXXXXXXXXXXX....    ",
"    ....XXXXXXXXXXXXXXXXXXXXXXXXXXXXXXXXXXXXXXXXXXXXXXXX....    ",
"    ....XXXXXXXXXXXXXXXXXXXXXXXXXXXXXXXXXXXXXXXXXXXXXXXX....    ",
"        ................................................        ",
"        ................................................        ",
"        ................................................        ",
"        ................................................        ",
"                                                                ",
"                                                                ",
"                                                                ",
"                                                                "
};
