/* XPM */
static char *c336a305004a4350c79023f82740b61d9ka6OFyKxAHS0I2G[] = {
/* columns rows colors chars-per-pixel */
"72 72 6 1 ",
"  c None",
". c #A35B70",
"X c #8A4A70",
"o c #D99A9A",
"O c #BD757E",
"+ c white",
/* pixels */
"                                                                        ",
"                                                                        ",
"                                                                        ",
"                                                                        ",
"                                                                        ",
"                                                                        ",
"                                                                        ",
"                                                                        ",
"                                                                        ",
"      .........XXX                                                      ",
"      .........XXX                                                      ",
"      .........XXX                                                      ",
"      ...oooOOOXXX                                                      ",
"      ...oooOOOXXX                                                      ",
"      ...oooOOOXXX                                                      ",
"      XXXOOOOOOXXX                     .........XXX                     ",
"      XXXOOOOOOXXX                     .........XXX                     ",
"      XXXOOOOOOXXX                     .........XXX                     ",
"         XXXXXX                        ...oooOOOXXX                     ",
"         XXXXXX                        ...oooOOOXXX                     ",
"         XXXXXX                        ...oooOOOXXX                     ",
"                                       XXXOOOOOOXXX                     ",
"                                       XXXOOOOOOXXX                     ",
"                                       XXXOOOOOOXXX                     ",
"                                          XXXXXX                        ",
"                                          XXXXXX                        ",
"                                          XXXXXX                        ",
"                                                                        ",
"                                                                        ",
"                                                                        ",
"                                                                        ",
"                                                                        ",
"                                                                        ",
"                                                                        ",
"                                                                        ",
"                                                                        ",
"               .........XXX                                             ",
"               .........XXX                                             ",
"               .........XXX                                             ",
"               ...oooOOOXXX                     .........XXX            ",
"               ...oooOOOXXX                     .........XXX            ",
"               ...oooOOOXXX                     .........XXX            ",
"               XXXOOOOOOXXX                     ...oooOOOXXX            ",
"               XXXOOOOOOXXX                     ...oooOOOXXX            ",
"               XXXOOOOOOXXX                     ...oooOOOXXX            ",
"                  XXXXXX                        XXXOOOOOOXXX            ",
"                  XXXXXX                        XXXOOOOOOXXX            ",
"                  XXXXXX                        XXXOOOOOOXXX            ",
"                                                   XXXXXX               ",
"                                                   XXXXXX               ",
"                                                   XXXXXX               ",
"                                                                        ",
"                                                                        ",
"                                                                        ",
"                              .........XXX                              ",
"                              .........XXX                              ",
"                              .........XXX                              ",
"                              ...oooOOOXXX                              ",
"                              ...oooOOOXXX                              ",
"                              ...oooOOOXXX                              ",
"                              XXXOOOOOOXXX                              ",
"                              XXXOOOOOOXXX                              ",
"                              XXXOOOOOOXXX                              ",
"                                 XXXXXX                                 ",
"                                 XXXXXX                                 ",
"                                 XXXXXX                                 ",
"                                                                        ",
"                                                                        ",
"                                                                        ",
"                                                                        ",
"                                                                        ",
"                                                                        "
};
