/* XPM */
static char *d3a8b6b2fc9c4a52e16a7fb5d612d096yvlMimpe9JsveTP8[] = {
/* columns rows colors chars-per-pixel */
"72 72 4 1 ",
"  c #C0D470",
". c #A4C263",
"X c #E8EEAA",
"o c white",
/* pixels */
"                                                                        ",
"                                                                        ",
"                                                                        ",
"                                                                        ",
"                                                                        ",
"                                                                        ",
"                                 ...   ...                              ",
"                                 ...   ...                              ",
"                                 ...   ...                              ",
"      ...   ...                     ...                                 ",
"      ...   ...                     ...                                 ",
"      ...   ...                     ...                                 ",
"         ...                                                            ",
"         ...                                                            ",
"         ...                                                            ",
"                                                                        ",
"                                                                        ",
"                                                                        ",
"                                                                        ",
"                                                                        ",
"                                                                        ",
"                                                                        ",
"                                                                        ",
"                                                                        ",
"                                                                        ",
"                                                                        ",
"                                                                        ",
"                                                         ...   ...      ",
"                                                         ...   ...      ",
"                                                         ...   ...      ",
"                                                            ...         ",
"                                                            ...         ",
"                                                            ...         ",
"                                                                        ",
"                                                                        ",
"                                                                        ",
"                                                                        ",
"                                                                        ",
"                                                                        ",
"                                       ...   ...                        ",
"                                       ...   ...                        ",
"                                       ...   ...                        ",
"                                          ...                           ",
"                                          ...                           ",
"                                          ...                           ",
"                                                                        ",
"                                                                        ",
"                                                                        ",
"                                                                        ",
"                                                                        ",
"                                                                        ",
"                                                                        ",
"                                                                        ",
"                                                                        ",
"                                                                        ",
"                                                                        ",
"                                                                        ",
"            XXX   XXX                                                   ",
"            XXX   XXX                                                   ",
"            XXX   XXX                                                   ",
"               XXX                                                      ",
"               XXX                                                      ",
"               XXX                                                      ",
"                                             XXX   XXX                  ",
"                                             XXX   XXX                  ",
"                                             XXX   XXX                  ",
"                                                XXX                     ",
"                                                XXX                     ",
"                                                XXX                     ",
"                                                                        ",
"                                                                        ",
"                                                                        "
};
