/* XPM */
static char *ca42599c32614e03834f89be8ca038caCATiRLTgWtKhS2hN[] = {
/* columns rows colors chars-per-pixel */
"72 72 6 1 ",
"  c None",
". c #5C4E92",
"X c #F3F2C0",
"o c #DDD5DE",
"O c #766DAA",
"+ c white",
/* pixels */
"                                                                        ",
"                                                                        ",
"                                                                        ",
"                                                                        ",
"                                                                        ",
"                                                                        ",
"                                                                        ",
"                                                                        ",
"                                                                        ",
"                                                                        ",
"                                                                        ",
"                                                                        ",
"                     .........            .........                     ",
"                     .........            .........                     ",
"                     .........            .........                     ",
"                  ...XXXXXXXXX...      ...XXXXXXXXX...                  ",
"                  ...XXXXXXXXX...      ...XXXXXXXXX...                  ",
"                  ...XXXXXXXXX...      ...XXXXXXXXX...                  ",
"                  ...XXXXXXXXX............XXXXXXXXX...                  ",
"                  ...XXXXXXXXX............XXXXXXXXX...                  ",
"                  ...XXXXXXXXX............XXXXXXXXX...                  ",
"                  ...XXXXXXXXXooooooooooooXXXXXXXXX...                  ",
"                  ...XXXXXXXXXooooooooooooXXXXXXXXX...                  ",
"                  ...XXXXXXXXXooooooooooooXXXXXXXXX...                  ",
"                  ...XXXXXXXXXXXXXXXXXXXXXXXXXXXXXX...                  ",
"                  ...XXXXXXXXXXXXXXXXXXXXXXXXXXXXXX...                  ",
"                  ...XXXXXXXXXXXXXXXXXXXXXXXXXXXXXX...                  ",
"                  ...XXXXXXXXXXXXXXXXXXXXXXXXXXXXXX...                  ",
"                  ...XXXXXXXXXXXXXXXXXXXXXXXXXXXXXX...                  ",
"                  ...XXXXXXXXXXXXXXXXXXXXXXXXXXXXXX...                  ",
"               ......XXXXXXXXXXXXXXXXXXXXXXXXXXXXXX......               ",
"               ......XXXXXXXXXXXXXXXXXXXXXXXXXXXXXX......               ",
"               ......XXXXXXXXXXXXXXXXXXXXXXXXXXXXXX......               ",
"                  ...XXXXXXXXXXXXXXXXXXXXXXXXXXXXXX...                  ",
"                  ...XXXXXXXXXXXXXXXXXXXXXXXXXXXXXX...                  ",
"                  ...XXXXXXXXXXXXXXXXXXXXXXXXXXXXXX...                  ",
"               ......XXXXXXXXXXXXXXXXXXXXXXXXXXXXXX......               ",
"               ......XXXXXXXXXXXXXXXXXXXXXXXXXXXXXX......               ",
"               ......XXXXXXXXXXXXXXXXXXXXXXXXXXXXXX......               ",
"                  ...XXXXXXXXXXXXXXXXXXXXXXXXXXXXXX...                  ",
"                  ...XXXXXXXXXXXXXXXXXXXXXXXXXXXXXX...                  ",
"                  ...XXXXXXXXXXXXXXXXXXXXXXXXXXXXXX...                  ",
"                     ......OOOOOOOOOOOOOOOOOO......                     ",
"                     ......OOOOOOOOOOOOOOOOOO......                     ",
"                     ......OOOOOOOOOOOOOOOOOO......                     ",
"                  ...oooXXXOOOOOO......OOOOOOXXXooo...                  ",
"                  ...oooXXXOOOOOO......OOOOOOXXXooo...                  ",
"                  ...oooXXXOOOOOO......OOOOOOXXXooo...                  ",
"                  ...oooXXXXXX...XXXXXX...XXXXXXooo...                  ",
"                  ...oooXXXXXX...XXXXXX...XXXXXXooo...                  ",
"                  ...oooXXXXXX...XXXXXX...XXXXXXooo...                  ",
"                     ......XXXXXXXXXXXXXXXXXX......                     ",
"                     ......XXXXXXXXXXXXXXXXXX......                     ",
"                     ......XXXXXXXXXXXXXXXXXX......                     ",
"                        ...oooooo......oooooo...                        ",
"                        ...oooooo......oooooo...                        ",
"                        ...oooooo......oooooo...                        ",
"                           ......      ......                           ",
"                           ......      ......                           ",
"                           ......      ......                           ",
"                                                                        ",
"                                                                        ",
"                                                                        ",
"                                                                        ",
"                                                                        ",
"                                                                        ",
"                                                                        ",
"                                                                        ",
"                                                                        ",
"                                                                        ",
"                                                                        ",
"                                                                        "
};
