/* XPM */
static char *_d2911a42c0d4122d15fd7e8bbd6a9cck6zDGgDvRwMXDEUY[] = {
/* columns rows colors chars-per-pixel */
"72 72 6 1 ",
"  c None",
". c #5C4E92",
"X c #F3F2C0",
"o c #DDD5DE",
"O c #766DAA",
"+ c white",
/* pixels */
"                                                                        ",
"                                                                        ",
"                                                                        ",
"                                                                        ",
"                                                                        ",
"                                                                        ",
"                                                                        ",
"                                                                        ",
"                                                                        ",
"                                                                        ",
"                                                                        ",
"                                                                        ",
"                  ............               .........                  ",
"                  ............               .........                  ",
"                  ............               .........                  ",
"               ...XXXXXXXXX..................XXXXXXXXX...               ",
"               ...XXXXXXXXX..................XXXXXXXXX...               ",
"               ...XXXXXXXXX..................XXXXXXXXX...               ",
"               ...XXXXXXXXXXXXooooooooooooXXXXXXXXXXXX...               ",
"               ...XXXXXXXXXXXXooooooooooooXXXXXXXXXXXX...               ",
"               ...XXXXXXXXXXXXooooooooooooXXXXXXXXXXXX...               ",
"               ...XXXXXXXXXXXXXXXXXXXXXXXXXXXXXXXXXXXX...               ",
"               ...XXXXXXXXXXXXXXXXXXXXXXXXXXXXXXXXXXXX...               ",
"               ...XXXXXXXXXXXXXXXXXXXXXXXXXXXXXXXXXXXX...               ",
"                  ...XXXXXXXXXXXXXXXXXXXXXXXXXXXXXX...                  ",
"                  ...XXXXXXXXXXXXXXXXXXXXXXXXXXXXXX...                  ",
"                  ...XXXXXXXXXXXXXXXXXXXXXXXXXXXXXX...                  ",
"               ......XXXXXXXXXXXXXXXXXXXXXXXXXXXXXX......               ",
"               ......XXXXXXXXXXXXXXXXXXXXXXXXXXXXXX......               ",
"               ......XXXXXXXXXXXXXXXXXXXXXXXXXXXXXX......               ",
"                  ...XXXXXXXXXXXXXXXXXXXXXXXXXXXXXX...                  ",
"                  ...XXXXXXXXXXXXXXXXXXXXXXXXXXXXXX...                  ",
"                  ...XXXXXXXXXXXXXXXXXXXXXXXXXXXXXX...                  ",
"               ......XXXXXXXXXXXXXXXXXXXXXXXXXXXXXX......               ",
"               ......XXXXXXXXXXXXXXXXXXXXXXXXXXXXXX......               ",
"               ......XXXXXXXXXXXXXXXXXXXXXXXXXXXXXX......               ",
"                  ...XXXXXXXXXXXXXXXXXXXXXXXXXXXXXX...                  ",
"                  ...XXXXXXXXXXXXXXXXXXXXXXXXXXXXXX...                  ",
"                  ...XXXXXXXXXXXXXXXXXXXXXXXXXXXXXX...                  ",
"                     ......OOOOOOOOOOOOOOOOOO......                     ",
"                     ......OOOOOOOOOOOOOOOOOO......                     ",
"                     ......OOOOOOOOOOOOOOOOOO......                     ",
"                        ...OOOOOOOOOOOOOOOOOO...                        ",
"                        ...OOOOOOOOOOOOOOOOOO...                        ",
"                        ...OOOOOOOOOOOOOOOOOO...                        ",
"                     ...oooXXXXXX......XXXXXXooo...                     ",
"                     ...oooXXXXXX......XXXXXXooo...                     ",
"                     ...oooXXXXXX......XXXXXXooo...                     ",
"                     ...oooXXX...XXXXXX...XXXooo...                     ",
"                     ...oooXXX...XXXXXX...XXXooo...                     ",
"                     ...oooXXX...XXXXXX...XXXooo...                     ",
"                        ...XXXXXXXXXXXXXXXXXX...                        ",
"                        ...XXXXXXXXXXXXXXXXXX...                        ",
"                        ...XXXXXXXXXXXXXXXXXX...                        ",
"                        ...oooooo......oooooo...                        ",
"                        ...oooooo......oooooo...                        ",
"                        ...oooooo......oooooo...                        ",
"                           ......      ......                           ",
"                           ......      ......                           ",
"                           ......      ......                           ",
"                                                                        ",
"                                                                        ",
"                                                                        ",
"                                                                        ",
"                                                                        ",
"                                                                        ",
"                                                                        ",
"                                                                        ",
"                                                                        ",
"                                                                        ",
"                                                                        ",
"                                                                        "
};
