/* XPM */
static char *_d965d3a5bc7423d8e9ddb4a9a03856bytlod0KUSVhkQkyv[] = {
/* columns rows colors chars-per-pixel */
"72 72 9 1 ",
"  c None",
". c #5C4E92",
"X c #F3F2C0",
"o c #E8B5AC",
"O c #DDD5DE",
"+ c #F3D8C5",
"@ c #766DAA",
"# c #EAE178",
"$ c white",
/* pixels */
"                                                                        ",
"                                                                        ",
"                                                                        ",
"                                                                        ",
"                                                                        ",
"                                                                        ",
"                                                                        ",
"                                                                        ",
"                                                                        ",
"                                                                        ",
"                                                                        ",
"                                                                        ",
"                  ............               .........                  ",
"                  ............               .........                  ",
"                  ............               .........                  ",
"               ...XXXXXXXXX..................XXXXXXXXX...               ",
"               ...XXXXXXXXX..................XXXXXXXXX...               ",
"               ...XXXXXXXXX..................XXXXXXXXX...               ",
"               ...ooooooXXXXXXOOOOOOOOOOOOXXXXXXoooooo...               ",
"               ...ooooooXXXXXXOOOOOOOOOOOOXXXXXXoooooo...               ",
"               ...ooooooXXXXXXOOOOOOOOOOOOXXXXXXoooooo...               ",
"               ...ooooooXXXXXXOOOOOOOOOOOOXXXXXXoooooo...               ",
"               ...ooooooXXXXXXOOOOOOOOOOOOXXXXXXoooooo...               ",
"               ...ooooooXXXXXXOOOOOOOOOOOOXXXXXXoooooo...               ",
"                  ...XXXXXXXXXOOOOOOOOOOOOXXXXXXXXX...                  ",
"                  ...XXXXXXXXXOOOOOOOOOOOOXXXXXXXXX...                  ",
"                  ...XXXXXXXXXOOOOOOOOOOOOXXXXXXXXX...                  ",
"               ......XXXXXXXXXXXXXXXXXXXXXXXXXXXXXX......               ",
"               ......XXXXXXXXXXXXXXXXXXXXXXXXXXXXXX......               ",
"               ......XXXXXXXXXXXXXXXXXXXXXXXXXXXXXX......               ",
"                  ...XXX...XXXXXXXXXXXXXXXXXX...XXX...                  ",
"                  ...XXX...XXXXXXXXXXXXXXXXXX...XXX...                  ",
"                  ...XXX...XXXXXXXXXXXXXXXXXX...XXX...                  ",
"               ......XXXXXXXXXXXXXXXXXXXXXXXXXXXXXX......               ",
"               ......XXXXXXXXXXXXXXXXXXXXXXXXXXXXXX......               ",
"               ......XXXXXXXXXXXXXXXXXXXXXXXXXXXXXX......               ",
"                  ...++++++XXXXXXXXXXXXXXXXXX++++++...                  ",
"                  ...++++++XXXXXXXXXXXXXXXXXX++++++...                  ",
"                  ...++++++XXXXXXXXXXXXXXXXXX++++++...                  ",
"                     ......@@@@@@@@@@@@@@@@@@......                     ",
"                     ......@@@@@@@@@@@@@@@@@@......                     ",
"                     ......@@@@@@@@@@@@@@@@@@......                     ",
"                        ...@@@@@@###XXX@@@@@@...                        ",
"                        ...@@@@@@###XXX@@@@@@...                        ",
"                        ...@@@@@@###XXX@@@@@@...                        ",
"                     ...OOOXXXXXX######XXXXXXOOO...                     ",
"                     ...OOOXXXXXX######XXXXXXOOO...                     ",
"                     ...OOOXXXXXX######XXXXXXOOO...                     ",
"                     ...OOOXXXXXXXXXXXXXXXXXXOOO...                     ",
"                     ...OOOXXXXXXXXXXXXXXXXXXOOO...                     ",
"                     ...OOOXXXXXXXXXXXXXXXXXXOOO...                     ",
"                        ...XXXXXXXXXXXXXXXXXX...                        ",
"                        ...XXXXXXXXXXXXXXXXXX...                        ",
"                        ...XXXXXXXXXXXXXXXXXX...                        ",
"                        ...OOOOOO......OOOOOO...                        ",
"                        ...OOOOOO......OOOOOO...                        ",
"                        ...OOOOOO......OOOOOO...                        ",
"                           ......      ......                           ",
"                           ......      ......                           ",
"                           ......      ......                           ",
"                                                                        ",
"                                                                        ",
"                                                                        ",
"                                                                        ",
"                                                                        ",
"                                                                        ",
"                                                                        ",
"                                                                        ",
"                                                                        ",
"                                                                        ",
"                                                                        ",
"                                                                        "
};
