/* XPM */
static char *_ea692fbe5374d4aeb39b62ddfb3d8d1i8o7l1SMpB46JnVe[] = {
/* columns rows colors chars-per-pixel */
"72 72 9 1 ",
"  c None",
". c #5C4E92",
"X c #F3F2C0",
"o c #E8B5AC",
"O c #DDD5DE",
"+ c #F3D8C5",
"@ c #766DAA",
"# c #EAE178",
"$ c white",
/* pixels */
"                                                                        ",
"                                                                        ",
"                                                                        ",
"                                                                        ",
"                                                                        ",
"                                                                        ",
"                                                                        ",
"                                                                        ",
"                                                                        ",
"                                                                        ",
"                                                                        ",
"                                                                        ",
"                     .........            .........                     ",
"                     .........            .........                     ",
"                     .........            .........                     ",
"                  ...XXXXXXXXX...      ...XXXXXXXXX...                  ",
"                  ...XXXXXXXXX...      ...XXXXXXXXX...                  ",
"                  ...XXXXXXXXX...      ...XXXXXXXXX...                  ",
"                  ...ooooooXXX............XXXoooooo...                  ",
"                  ...ooooooXXX............XXXoooooo...                  ",
"                  ...ooooooXXX............XXXoooooo...                  ",
"                  ...ooooooXXXOOOOOOOOOOOOXXXoooooo...                  ",
"                  ...ooooooXXXOOOOOOOOOOOOXXXoooooo...                  ",
"                  ...ooooooXXXOOOOOOOOOOOOXXXoooooo...                  ",
"                  ...XXXXXXXXXOOOOOOOOOOOOXXXXXXXXX...                  ",
"                  ...XXXXXXXXXOOOOOOOOOOOOXXXXXXXXX...                  ",
"                  ...XXXXXXXXXOOOOOOOOOOOOXXXXXXXXX...                  ",
"                  ...XXXXXXXXXOOOOOOOOOOOOXXXXXXXXX...                  ",
"                  ...XXXXXXXXXOOOOOOOOOOOOXXXXXXXXX...                  ",
"                  ...XXXXXXXXXOOOOOOOOOOOOXXXXXXXXX...                  ",
"               ......XXXXXXXXXXXXXXXXXXXXXXXXXXXXXX......               ",
"               ......XXXXXXXXXXXXXXXXXXXXXXXXXXXXXX......               ",
"               ......XXXXXXXXXXXXXXXXXXXXXXXXXXXXXX......               ",
"                  ...XXX...XXXXXXXXXXXXXXXXXX...XXX...                  ",
"                  ...XXX...XXXXXXXXXXXXXXXXXX...XXX...                  ",
"                  ...XXX...XXXXXXXXXXXXXXXXXX...XXX...                  ",
"               ......XXXXXXXXXXXXXXXXXXXXXXXXXXXXXX......               ",
"               ......XXXXXXXXXXXXXXXXXXXXXXXXXXXXXX......               ",
"               ......XXXXXXXXXXXXXXXXXXXXXXXXXXXXXX......               ",
"                  ...++++++XXXXXXXXXXXXXXXXXX++++++...                  ",
"                  ...++++++XXXXXXXXXXXXXXXXXX++++++...                  ",
"                  ...++++++XXXXXXXXXXXXXXXXXX++++++...                  ",
"                     ......@@@@@@@@@@@@@@@@@@......                     ",
"                     ......@@@@@@@@@@@@@@@@@@......                     ",
"                     ......@@@@@@@@@@@@@@@@@@......                     ",
"                  ...OOOXXX@@@@@@###XXX@@@@@@XXXOOO...                  ",
"                  ...OOOXXX@@@@@@###XXX@@@@@@XXXOOO...                  ",
"                  ...OOOXXX@@@@@@###XXX@@@@@@XXXOOO...                  ",
"                  ...OOOXXXXXXXXX######XXXXXXXXXOOO...                  ",
"                  ...OOOXXXXXXXXX######XXXXXXXXXOOO...                  ",
"                  ...OOOXXXXXXXXX######XXXXXXXXXOOO...                  ",
"                     ......XXXXXXXXXXXXXXXXXX......                     ",
"                     ......XXXXXXXXXXXXXXXXXX......                     ",
"                     ......XXXXXXXXXXXXXXXXXX......                     ",
"                        ...OOOOOO......OOOOOO...                        ",
"                        ...OOOOOO......OOOOOO...                        ",
"                        ...OOOOOO......OOOOOO...                        ",
"                           ......      ......                           ",
"                           ......      ......                           ",
"                           ......      ......                           ",
"                                                                        ",
"                                                                        ",
"                                                                        ",
"                                                                        ",
"                                                                        ",
"                                                                        ",
"                                                                        ",
"                                                                        ",
"                                                                        ",
"                                                                        ",
"                                                                        ",
"                                                                        "
};
