/* XPM */
static char *_efda786673d49cfbf74e1da4f096bdduMGuBF0VTqg4FMnW[] = {
/* columns rows colors chars-per-pixel */
"72 72 9 1 ",
"  c None",
". c #5C4E92",
"X c #F3F2C0",
"o c #E8B5AC",
"O c #F3D8C5",
"+ c #766DAA",
"@ c #EAE178",
"# c #DDD5DE",
"$ c white",
/* pixels */
"                                                                        ",
"                                                                        ",
"                                                                        ",
"                                                                        ",
"                                                                        ",
"                                                                        ",
"                                                                        ",
"                                                                        ",
"                                                                        ",
"                                                                        ",
"                                                                        ",
"                                                                        ",
"                                 .........                              ",
"                                 .........                              ",
"                                 .........                              ",
"                              ...XXXXXXXXX...                           ",
"                              ...XXXXXXXXX...                           ",
"                              ...XXXXXXXXX...                           ",
"                           ......XXXooooooXXX...                        ",
"                           ......XXXooooooXXX...                        ",
"                           ......XXXooooooXXX...                        ",
"                        ...XXXXXXXXXooooooXXX...                        ",
"                        ...XXXXXXXXXooooooXXX...                        ",
"                        ...XXXXXXXXXooooooXXX...                        ",
"                        ...XXXXXXXXXXXXXXXXXX...                        ",
"                        ...XXXXXXXXXXXXXXXXXX...                        ",
"                        ...XXXXXXXXXXXXXXXXXX...                        ",
"                        ...XXXXXXXXXXXXXXXXXX...                        ",
"                        ...XXXXXXXXXXXXXXXXXX...                        ",
"                        ...XXXXXXXXXXXXXXXXXX...                        ",
"                     ......XXXXXXXXXXXXXXXXXX......                     ",
"                     ......XXXXXXXXXXXXXXXXXX......                     ",
"                     ......XXXXXXXXXXXXXXXXXX......                     ",
"                     ...XXXXXX...XXXXXXXXXXXX...                        ",
"                     ...XXXXXX...XXXXXXXXXXXX...                        ",
"                     ...XXXXXX...XXXXXXXXXXXX...                        ",
"                     ...XXXXXXXXXXXXXXXXXXXXX......                     ",
"                     ...XXXXXXXXXXXXXXXXXXXXX......                     ",
"                     ...XXXXXXXXXXXXXXXXXXXXX......                     ",
"                     ...XXXXXXXXXOOOOOOXXXXXX...                        ",
"                     ...XXXXXXXXXOOOOOOXXXXXX...                        ",
"                     ...XXXXXXXXXOOOOOOXXXXXX...                        ",
"                        ...+++++++++++++++...                           ",
"                        ...+++++++++++++++...                           ",
"                        ...+++++++++++++++...                           ",
"                        @@@++++++++++++XXX###...                        ",
"                        @@@++++++++++++XXX###...                        ",
"                        @@@++++++++++++XXX###...                        ",
"                        @@@...XXXXXXXXXXXX###...                        ",
"                        @@@...XXXXXXXXXXXX###...                        ",
"                        @@@...XXXXXXXXXXXX###...                        ",
"                           ...XXXXXXXXXXXX...                           ",
"                           ...XXXXXXXXXXXX...                           ",
"                           ...XXXXXXXXXXXX...                           ",
"                              ...######...                              ",
"                              ...######...                              ",
"                              ...######...                              ",
"                                 ......                                 ",
"                                 ......                                 ",
"                                 ......                                 ",
"                                                                        ",
"                                                                        ",
"                                                                        ",
"                                                                        ",
"                                                                        ",
"                                                                        ",
"                                                                        ",
"                                                                        ",
"                                                                        ",
"                                                                        ",
"                                                                        ",
"                                                                        "
};
