/* XPM */
static char *_31f5f0b4ff547cd90dfcb55586127dfZT5j9tepaf9G9vaF[] = {
/* columns rows colors chars-per-pixel */
"72 72 9 1 ",
"  c None",
". c #5C4E92",
"X c #F3F2C0",
"o c #E8B5AC",
"O c #F3D8C5",
"+ c #766DAA",
"@ c #DDD5DE",
"# c #EAE178",
"$ c white",
/* pixels */
"                                                                        ",
"                                                                        ",
"                                                                        ",
"                                                                        ",
"                                                                        ",
"                                                                        ",
"                                                                        ",
"                                                                        ",
"                                                                        ",
"                                                                        ",
"                                                                        ",
"                                                                        ",
"                           .........                                    ",
"                           .........                                    ",
"                           .........                                    ",
"                        ...XXXXXXXXX.........                           ",
"                        ...XXXXXXXXX.........                           ",
"                        ...XXXXXXXXX.........                           ",
"                     ...XXXooooooXXXXXXXXXXXX...                        ",
"                     ...XXXooooooXXXXXXXXXXXX...                        ",
"                     ...XXXooooooXXXXXXXXXXXX...                        ",
"                     ...XXXooooooXXXXXXXXXXXX...                        ",
"                     ...XXXooooooXXXXXXXXXXXX...                        ",
"                     ...XXXooooooXXXXXXXXXXXX...                        ",
"                        ...XXXXXXXXXXXXXXXXXX...                        ",
"                        ...XXXXXXXXXXXXXXXXXX...                        ",
"                        ...XXXXXXXXXXXXXXXXXX...                        ",
"                     ......XXXXXXXXXXXXXXXXXX......                     ",
"                     ......XXXXXXXXXXXXXXXXXX......                     ",
"                     ......XXXXXXXXXXXXXXXXXX......                     ",
"                        ...XXXXXXXXXXXX...XXXXXX...                     ",
"                        ...XXXXXXXXXXXX...XXXXXX...                     ",
"                        ...XXXXXXXXXXXX...XXXXXX...                     ",
"                     ......XXXXXXXXXXXXXXXXXXXXX...                     ",
"                     ......XXXXXXXXXXXXXXXXXXXXX...                     ",
"                     ......XXXXXXXXXXXXXXXXXXXXX...                     ",
"                        ...XXXXXXOOOOOOXXXXXXXXX...                     ",
"                        ...XXXXXXOOOOOOXXXXXXXXX...                     ",
"                        ...XXXXXXOOOOOOXXXXXXXXX...                     ",
"                           ...+++++++++++++++...                        ",
"                           ...+++++++++++++++...                        ",
"                           ...+++++++++++++++...                        ",
"                        ...@@@XXX++++++++++++###                        ",
"                        ...@@@XXX++++++++++++###                        ",
"                        ...@@@XXX++++++++++++###                        ",
"                        ...@@@XXXXXXXXXXXX...###                        ",
"                        ...@@@XXXXXXXXXXXX...###                        ",
"                        ...@@@XXXXXXXXXXXX...###                        ",
"                           ...XXXXXXXXXXXX...                           ",
"                           ...XXXXXXXXXXXX...                           ",
"                           ...XXXXXXXXXXXX...                           ",
"                           ...XXXXXXXXXXXX...                           ",
"                           ...XXXXXXXXXXXX...                           ",
"                           ...XXXXXXXXXXXX...                           ",
"                              ...@@@@@@...                              ",
"                              ...@@@@@@...                              ",
"                              ...@@@@@@...                              ",
"                                 ......                                 ",
"                                 ......                                 ",
"                                 ......                                 ",
"                                                                        ",
"                                                                        ",
"                                                                        ",
"                                                                        ",
"                                                                        ",
"                                                                        ",
"                                                                        ",
"                                                                        ",
"                                                                        ",
"                                                                        ",
"                                                                        ",
"                                                                        "
};
