/* XPM */
static char *a0b5c360d7ee4e95d234aeb8a6d62e48UOA0MiEqmqq7EptN[] = {
/* columns rows colors chars-per-pixel */
"72 72 9 1 ",
"  c None",
". c #5C4E92",
"X c #F3F2C0",
"o c #E8B5AC",
"O c #F3D8C5",
"+ c #766DAA",
"@ c #DDD5DE",
"# c #EAE178",
"$ c white",
/* pixels */
"                                                                        ",
"                                                                        ",
"                                                                        ",
"                                                                        ",
"                                                                        ",
"                                                                        ",
"                                                                        ",
"                                                                        ",
"                                                                        ",
"                                                                        ",
"                                                                        ",
"                                                                        ",
"                              .........                                 ",
"                              .........                                 ",
"                              .........                                 ",
"                           ...XXXXXXXXX...                              ",
"                           ...XXXXXXXXX...                              ",
"                           ...XXXXXXXXX...                              ",
"                        ...XXXooooooXXX......                           ",
"                        ...XXXooooooXXX......                           ",
"                        ...XXXooooooXXX......                           ",
"                        ...XXXooooooXXXXXXXXX...                        ",
"                        ...XXXooooooXXXXXXXXX...                        ",
"                        ...XXXooooooXXXXXXXXX...                        ",
"                        ...XXXXXXXXXXXXXXXXXX...                        ",
"                        ...XXXXXXXXXXXXXXXXXX...                        ",
"                        ...XXXXXXXXXXXXXXXXXX...                        ",
"                        ...XXXXXXXXXXXXXXXXXX...                        ",
"                        ...XXXXXXXXXXXXXXXXXX...                        ",
"                        ...XXXXXXXXXXXXXXXXXX...                        ",
"                     ......XXXXXXXXXXXXXXXXXX......                     ",
"                     ......XXXXXXXXXXXXXXXXXX......                     ",
"                     ......XXXXXXXXXXXXXXXXXX......                     ",
"                        ...XXXXXXXXXXXX...XXXXXX...                     ",
"                        ...XXXXXXXXXXXX...XXXXXX...                     ",
"                        ...XXXXXXXXXXXX...XXXXXX...                     ",
"                     ......XXXXXXXXXXXXXXXXXXXXX...                     ",
"                     ......XXXXXXXXXXXXXXXXXXXXX...                     ",
"                     ......XXXXXXXXXXXXXXXXXXXXX...                     ",
"                        ...XXXXXXOOOOOOXXXXXXXXX...                     ",
"                        ...XXXXXXOOOOOOXXXXXXXXX...                     ",
"                        ...XXXXXXOOOOOOXXXXXXXXX...                     ",
"                           ...+++++++++++++++...                        ",
"                           ...+++++++++++++++...                        ",
"                           ...+++++++++++++++...                        ",
"                        ...@@@XXX++++++++++++###                        ",
"                        ...@@@XXX++++++++++++###                        ",
"                        ...@@@XXX++++++++++++###                        ",
"                        ...@@@XXXXXXXXXXXX...###                        ",
"                        ...@@@XXXXXXXXXXXX...###                        ",
"                        ...@@@XXXXXXXXXXXX...###                        ",
"                           ...XXXXXXXXXXXX...                           ",
"                           ...XXXXXXXXXXXX...                           ",
"                           ...XXXXXXXXXXXX...                           ",
"                              ...@@@@@@...                              ",
"                              ...@@@@@@...                              ",
"                              ...@@@@@@...                              ",
"                                 ......                                 ",
"                                 ......                                 ",
"                                 ......                                 ",
"                                                                        ",
"                                                                        ",
"                                                                        ",
"                                                                        ",
"                                                                        ",
"                                                                        ",
"                                                                        ",
"                                                                        ",
"                                                                        ",
"                                                                        ",
"                                                                        ",
"                                                                        "
};
