/* XPM */
static char *_02acf9f6e1e469b997d81668b37058cqVWvCLIH4KJ5nAAz[] = {
/* columns rows colors chars-per-pixel */
"72 72 9 1 ",
"  c None",
". c #90625D",
"X c #C58086",
"o c #F3F2C0",
"O c #754C60",
"+ c #D4C169",
"@ c #E8CFA6",
"# c #C49A6C",
"$ c None",
/* pixels */
"                                                                        ",
"                                                                        ",
"                                                                        ",
"                                                                        ",
"                                                                        ",
"                                                                        ",
"                                                                        ",
"                                                                        ",
"                                                                        ",
"                                                                        ",
"                                                                        ",
"                                                                        ",
"                                                                        ",
"                                                                        ",
"                                                                        ",
"                                                                        ",
"                                                                        ",
"                                                                        ",
"                                                                        ",
"                                                                        ",
"                                                                        ",
"                                                                        ",
"                                                                        ",
"                                                                        ",
"                                                                        ",
"                                                                        ",
"                                                                        ",
"                                                                        ",
"                             .........                                  ",
"                             .........                                  ",
"                             .........                                  ",
"                          ...XXXXXXXXX...                               ",
"                          ...XXXXXXXXX...                               ",
"                          ...XXXXXXXXX...                               ",
"                       ...ooooooooooooooo...                            ",
"                       ...ooooooooooooooo...                            ",
"                       ...ooooooooooooooo...                            ",
"                    ...oooOOOooooooOOOoooooo...                         ",
"                    ...oooOOOooooooOOOoooooo...                         ",
"                    ...oooOOOooooooOOOoooooo...                         ",
"                    ...ooo++++++oooooooooooo...                         ",
"                    ...ooo++++++oooooooooooo...                         ",
"                    ...ooo++++++oooooooooooo...                         ",
"                    ...oooooooooooooooooooooooo...                      ",
"                    ...oooooooooooooooooooooooo...                      ",
"                    ...oooooooooooooooooooooooo...                      ",
"                    ...ooooooooooooooooooooooooooo...                   ",
"                    ...ooooooooooooooooooooooooooo...                   ",
"                    ...ooooooooooooooooooooooooooo...                   ",
"                    ...@@@ooooooooo###ooooooooo@@@...                   ",
"                    ...@@@ooooooooo###ooooooooo@@@...                   ",
"                    ...@@@ooooooooo###ooooooooo@@@...                   ",
"                       ...@@@@@@@@@@@@#########...                      ",
"                       ...@@@@@@@@@@@@#########...                      ",
"                       ...@@@@@@@@@@@@#########...                      ",
"                       $$$...++++++...++++++...$$$                      ",
"                       $$$...++++++...++++++...$$$                      ",
"                       $$$...++++++...++++++...$$$                      ",
"                    $$$$$$$$$......$$$......$$$$$$$$$                   ",
"                    $$$$$$$$$......$$$......$$$$$$$$$                   ",
"                    $$$$$$$$$......$$$......$$$$$$$$$                   ",
"                       $$$$$$$$$$$$$$$$$$$$$$$$$$$                      ",
"                       $$$$$$$$$$$$$$$$$$$$$$$$$$$                      ",
"                       $$$$$$$$$$$$$$$$$$$$$$$$$$$                      ",
"                                                                        ",
"                                                                        ",
"                                                                        ",
"                                                                        ",
"                                                                        ",
"                                                                        ",
"                                                                        ",
"                                                                        "
};
