/* XPM */
static char *ce1da380fd7640b5a952a8015c3c358fCT5LMTsFIiV38IqM[] = {
/* columns rows colors chars-per-pixel */
"72 72 9 1 ",
"  c None",
". c #90625D",
"X c #C58086",
"o c #F3F2C0",
"O c #754C60",
"+ c #D4C169",
"@ c #E8CFA6",
"# c #C49A6C",
"$ c None",
/* pixels */
"                                                                        ",
"                                                                        ",
"                                                                        ",
"                                                                        ",
"                                                                        ",
"                                                                        ",
"                                                                        ",
"                                                                        ",
"                                                                        ",
"                                                                        ",
"                                                                        ",
"                                                                        ",
"                                                                        ",
"                                                                        ",
"                                                                        ",
"                                                                        ",
"                                                                        ",
"                                                                        ",
"                                                                        ",
"                                                                        ",
"                                                                        ",
"                                                                        ",
"                                                                        ",
"                                                                        ",
"                                                                        ",
"                                                                        ",
"                                                                        ",
"                                                                        ",
"                                  .........                             ",
"                                  .........                             ",
"                                  .........                             ",
"                               ...XXXXXXXXX...                          ",
"                               ...XXXXXXXXX...                          ",
"                               ...XXXXXXXXX...                          ",
"                            ...ooooooooooooooo...                       ",
"                            ...ooooooooooooooo...                       ",
"                            ...ooooooooooooooo...                       ",
"                         ...oooOOOOOOooooooOOOOOO...                    ",
"                         ...oooOOOOOOooooooOOOOOO...                    ",
"                         ...oooOOOOOOooooooOOOOOO...                    ",
"                         ...oooooooooooo++++++ooo...                    ",
"                         ...oooooooooooo++++++ooo...                    ",
"                         ...oooooooooooo++++++ooo...                    ",
"                      ...oooooooooooooooooooooooo...                    ",
"                      ...oooooooooooooooooooooooo...                    ",
"                      ...oooooooooooooooooooooooo...                    ",
"                   ...ooooooooooooooooooooooooooo...                    ",
"                   ...ooooooooooooooooooooooooooo...                    ",
"                   ...ooooooooooooooooooooooooooo...                    ",
"                   ...@@@ooooooooo###ooooooooo@@@...                    ",
"                   ...@@@ooooooooo###ooooooooo@@@...                    ",
"                   ...@@@ooooooooo###ooooooooo@@@...                    ",
"                      ...#########@@@@@@@@@@@@...                       ",
"                      ...#########@@@@@@@@@@@@...                       ",
"                      ...#########@@@@@@@@@@@@...                       ",
"                      $$$...++++++...++++++...$$$                       ",
"                      $$$...++++++...++++++...$$$                       ",
"                      $$$...++++++...++++++...$$$                       ",
"                   $$$$$$$$$......$$$......$$$$$$$$$                    ",
"                   $$$$$$$$$......$$$......$$$$$$$$$                    ",
"                   $$$$$$$$$......$$$......$$$$$$$$$                    ",
"                      $$$$$$$$$$$$$$$$$$$$$$$$$$$                       ",
"                      $$$$$$$$$$$$$$$$$$$$$$$$$$$                       ",
"                      $$$$$$$$$$$$$$$$$$$$$$$$$$$                       ",
"                                                                        ",
"                                                                        ",
"                                                                        ",
"                                                                        ",
"                                                                        ",
"                                                                        ",
"                                                                        ",
"                                                                        "
};
