/* XPM */
static char *_4f4ac114dc74326f1fc6059c172e1c3xkLewsq3qv3ylBeL[] = {
/* columns rows colors chars-per-pixel */
"72 72 9 1 ",
"  c None",
". c #90625D",
"X c #C58086",
"o c #F3F2C0",
"O c #754C60",
"+ c #D4C169",
"@ c #E8CFA6",
"# c #C49A6C",
"$ c None",
/* pixels */
"                                                                        ",
"                                                                        ",
"                                                                        ",
"                                                                        ",
"                                                                        ",
"                                                                        ",
"                                                                        ",
"                                                                        ",
"                                                                        ",
"                                                                        ",
"                                                                        ",
"                                                                        ",
"                                                                        ",
"                                                                        ",
"                                                                        ",
"                                                                        ",
"                                                                        ",
"                                                                        ",
"                                                                        ",
"                                                                        ",
"                                                                        ",
"                                                                        ",
"                                                                        ",
"                                                                        ",
"                                                                        ",
"                                                                        ",
"                                                                        ",
"                                                                        ",
"                                  .........                             ",
"                                  .........                             ",
"                                  .........                             ",
"                               ...XXXXXXXXX...                          ",
"                               ...XXXXXXXXX...                          ",
"                               ...XXXXXXXXX...                          ",
"                            ...ooooooooooooooo...                       ",
"                            ...ooooooooooooooo...                       ",
"                            ...ooooooooooooooo...                       ",
"                         ...ooooooOOOooooooOOOooo...                    ",
"                         ...ooooooOOOooooooOOOooo...                    ",
"                         ...ooooooOOOooooooOOOooo...                    ",
"                         ...oooooooooooo++++++ooo...                    ",
"                         ...oooooooooooo++++++ooo...                    ",
"                         ...oooooooooooo++++++ooo...                    ",
"                      ...oooooooooooooooooooooooo...                    ",
"                      ...oooooooooooooooooooooooo...                    ",
"                      ...oooooooooooooooooooooooo...                    ",
"                   ...ooooooooooooooooooooooooooo...                    ",
"                   ...ooooooooooooooooooooooooooo...                    ",
"                   ...ooooooooooooooooooooooooooo...                    ",
"                   ...@@@ooooooooo###ooooooooo@@@...                    ",
"                   ...@@@ooooooooo###ooooooooo@@@...                    ",
"                   ...@@@ooooooooo###ooooooooo@@@...                    ",
"                      ...#########@@@@@@@@@@@@...                       ",
"                      ...#########@@@@@@@@@@@@...                       ",
"                      ...#########@@@@@@@@@@@@...                       ",
"                      $$$...++++++...++++++...$$$                       ",
"                      $$$...++++++...++++++...$$$                       ",
"                      $$$...++++++...++++++...$$$                       ",
"                   $$$$$$$$$......$$$......$$$$$$$$$                    ",
"                   $$$$$$$$$......$$$......$$$$$$$$$                    ",
"                   $$$$$$$$$......$$$......$$$$$$$$$                    ",
"                      $$$$$$$$$$$$$$$$$$$$$$$$$$$                       ",
"                      $$$$$$$$$$$$$$$$$$$$$$$$$$$                       ",
"                      $$$$$$$$$$$$$$$$$$$$$$$$$$$                       ",
"                                                                        ",
"                                                                        ",
"                                                                        ",
"                                                                        ",
"                                                                        ",
"                                                                        ",
"                                                                        ",
"                                                                        "
};
