/* XPM */
static char *result[] = {
/* columns rows colors chars-per-pixel */
"48 48 10 1 ",
"  c None",
". c #8A4A70",
"X c #A35B70",
"o c #BD757E",
"O c #6E967C",
"+ c #97BB8E",
"@ c #D99A9A",
"# c #AED499",
"$ c #C2E09A",
"% c None",
/* pixels */
"%%%%%%%%%%%%%%%                  %%%%%%%%%%%%%%%",
"%%%%%%%%%%%%%%%                  %%%%%%%%%%%%%%%",
"%%%%%%%%%%%%%%%                  %%%%%%%%%%%%%%%",
"%%%%%%%%%      +++###$$$$$$###+++      %%%%%%%%%",
"%%%%%%%%%      +++###$$$$$$###+++      %%%%%%%%%",
"%%%%%%%%%      +++###$$$$$$###+++      %%%%%%%%%",
"%%%%%%   +++#########$$$$$$#########+++   %%%%%%",
"%%%%%%   +++#########$$$$$$#########+++   %%%%%%",
"%%%%%%   +++#########$$$$$$#########+++   %%%%%%",
"%%%   +++###$$$$$$######$$$$$$$$$######+++   %%%",
"%%%   +++###$$$$$$######$$$$$$$$$######+++   %%%",
"%%%   +++###$$$$$$######$$$$$$$$$######+++   %%%",
"%%%   ######$$$$$$######$$$XXXXXXXXX...+++   %%%",
"%%%   ######$$$$$$######$$$XXXXXXXXX...+++   %%%",
"%%%   ######$$$$$$######$$$XXXXXXXXX...+++   %%%",
"   +++#####################XXX@@@ooo...###+++   ",
"   +++#####################XXX@@@ooo...###+++   ",
"   +++#####################XXX@@@ooo...###+++   ",
"   ++++++XXXXXXXXX...######...oooooo...++++++   ",
"   ++++++XXXXXXXXX...######...oooooo...++++++   ",
"   ++++++XXXXXXXXX...######...oooooo...++++++   ",
"   ++++++XXX@@@ooo...+++###+++......++++++   %%%",
"   ++++++XXX@@@ooo...+++###+++......++++++   %%%",
"   ++++++XXX@@@ooo...+++###+++......++++++   %%%",
"%%%   +++...oooooo...++++++++++++++++++++++++   ",
"%%%   +++...oooooo...++++++++++++++++++++++++   ",
"%%%   +++...oooooo...++++++++++++++++++++++++   ",
"   OOO++++++......++++++++++++++++++++++++OOO   ",
"   OOO++++++......++++++++++++++++++++++++OOO   ",
"   OOO++++++......++++++++++++++++++++++++OOO   ",
"   OOOOOO+++OOO+++OOOXXXXXXXXX...OOOOOOOOOOOO   ",
"   OOOOOO+++OOO+++OOOXXXXXXXXX...OOOOOOOOOOOO   ",
"   OOOOOO+++OOO+++OOOXXXXXXXXX...OOOOOOOOOOOO   ",
"   OOOOOOOOOOOOOOO+++XXX@@@ooo...++++++OOOOOO   ",
"   OOOOOOOOOOOOOOO+++XXX@@@ooo...++++++OOOOOO   ",
"   OOOOOOOOOOOOOOO+++XXX@@@ooo...++++++OOOOOO   ",
"%%%   OOO++++++OOOOOO...oooooo...OOOOOOOOO   %%%",
"%%%   OOO++++++OOOOOO...oooooo...OOOOOOOOO   %%%",
"%%%   OOO++++++OOOOOO...oooooo...OOOOOOOOO   %%%",
"%%%%%%OOOOOOOOOOOOOOOOOO......OOOOOOOOOOOO%%%%%%",
"%%%%%%OOOOOOOOOOOOOOOOOO......OOOOOOOOOOOO%%%%%%",
"%%%%%%OOOOOOOOOOOOOOOOOO......OOOOOOOOOOOO%%%%%%",
"%%%%%%%%%%%%OOOOOOOOOOOOOOOOOOOOOOOO%%%%%%%%%%%%",
"%%%%%%%%%%%%OOOOOOOOOOOOOOOOOOOOOOOO%%%%%%%%%%%%",
"%%%%%%%%%%%%OOOOOOOOOOOOOOOOOOOOOOOO%%%%%%%%%%%%",
"%%%%%%%%%%%%%%%%%%%%%%%%%%%%%%%%%%%%%%%%%%%%%%%%",
"%%%%%%%%%%%%%%%%%%%%%%%%%%%%%%%%%%%%%%%%%%%%%%%%",
"%%%%%%%%%%%%%%%%%%%%%%%%%%%%%%%%%%%%%%%%%%%%%%%%"
};
