/* XPM */
static char *c0b411a3ad6c44aef048e01f4e64f916kPG1kOKh9WXtrfLR[] = {
/* columns rows colors chars-per-pixel */
"60 60 9 1 ",
"  c None",
". c None",
"X c #90625D",
"o c #F3E5C2",
"O c #DCB98A",
"+ c #E8B5AC",
"@ c #754C60",
"# c #D99A9A",
"$ c white",
/* pixels */
"                                                            ",
"                                                            ",
"                                  XXXX    XXXX              ",
"                                  XXXX    XXXX              ",
"                                XXooXX    XXooXX            ",
"                                XXooXX    XXooXX            ",
"                          XXXX  XXooXXXXXXXXooXX    XXXX    ",
"                          XXXX  XXooXXXXXXXXooXX    XXXX    ",
"                        XXooooXXXXOOOOOOOOOOooooXXXXooooXX  ",
"                        XXooooXXXXOOOOOOOOOOooooXXXXooooXX  ",
"                XXXXXXXXXXooooooooOOOOOOOOOOooooooXXooooXX  ",
"                XXXXXXXXXXooooooooOOOOOOOOOOooooooXXooooXX  ",
"            XXXXOOOOOOooXX++++ooOOOOOOOOOOooooooooXX++++XX  ",
"            XXXXOOOOOOooXX++++ooOOOOOOOOOOooooooooXX++++XX  ",
"          XXOOOOOOOOOOooooXXXXXXOOOO@@@@oooooo@@@@ooXXXX    ",
"          XXOOOOOOOOOOooooXXXXXXOOOO@@@@oooooo@@@@ooXXXX    ",
"          XXOOOOOOOOooooooooooooooooooooooooooooooooXX      ",
"          XXOOOOOOOOooooooooooooooooooooooooooooooooXX      ",
"        XXXXOOOOoooooooooooooooooooooooo++++++++++++XX      ",
"        XXXXOOOOoooooooooooooooooooooooo++++++++++++XX      ",
"      XXOOXXooooooooooooOOOOooooXXoooo++++##++++##++XX      ",
"      XXOOXXooooooooooooOOOOooooXXoooo++++##++++##++XX      ",
"    XXOOXXXXooooooooooOOOOOOOOooooXXoo++++++++++++++XX      ",
"    XXOOXXXXooooooooooOOOOOOOOooooXXoo++++++++++++++XX      ",
"    XXXX  XXooooooooooooOOOOooooooooXXXXXXXXXXXXXXXX        ",
"    XXXX  XXooooooooooooOOOOooooooooXXXXXXXXXXXXXXXX        ",
"          XXOOOOOOOOooooooooooooooOOOOOOXX                  ",
"          XXOOOOOOOOooooooooooooooOOOOOOXX                  ",
"          XXOOOOOOOOOOOOOOOOOOOOOOOOOOOOXX                  ",
"          XXOOOOOOOOOOOOOOOOOOOOOOOOOOOOXX                  ",
"        ....XXOOOOXXXXXXXXOOOOXXXXXXOOOOXX....              ",
"        ....XXOOOOXXXXXXXXOOOOXXXXXXOOOOXX....              ",
"      ......XXOOOOXX....XXOOOOXX..XXOOOOXX......            ",
"      ......XXOOOOXX....XXOOOOXX..XXOOOOXX......            ",
"      ........XXXX........XXXX......XXXX........            ",
"      ........XXXX........XXXX......XXXX........            ",
"        ......................................              ",
"        ......................................              ",
"                                                            ",
"                                                            ",
"                                                            ",
"                                                            ",
"                                                            ",
"                                                            ",
"                                                            ",
"                                                            ",
"                                                            ",
"                                                            ",
"                                                            ",
"                                                            ",
"                                                            ",
"                                                            ",
"                                                            ",
"                                                            ",
"                                                            ",
"                                                            ",
"                                                            ",
"                                                            ",
"                                                            ",
"                                                            "
};
