/* XPM */
static char *f1ed663e66d74d209e4f826991ef2621nS2hA6HjOrzUGTAM[] = {
/* columns rows colors chars-per-pixel */
"60 60 9 1 ",
"  c None",
". c None",
"X c #90625D",
"o c #F3E5C2",
"O c #DCB98A",
"+ c #E8B5AC",
"@ c #754C60",
"# c #D99A9A",
"$ c white",
/* pixels */
"                                                            ",
"                                                            ",
"                                  XXXX    XXXX              ",
"                                  XXXX    XXXX              ",
"                                XXooXX    XXooXX            ",
"                                XXooXX    XXooXX            ",
"                          XXXX  XXooXXXXXXXXooXX    XXXX    ",
"                          XXXX  XXooXXXXXXXXooXX    XXXX    ",
"                        XXooooXXXXOOOOOOOOOOooooXXXXooooXX  ",
"                        XXooooXXXXOOOOOOOOOOooooXXXXooooXX  ",
"                XXXXXXXXXXooooooooOOOOOOOOOOooooooXXooooXX  ",
"                XXXXXXXXXXooooooooOOOOOOOOOOooooooXXooooXX  ",
"            XXXXOOOOOOooXX++++ooOOOOOO@@OOoooo@@ooXX++++XX  ",
"            XXXXOOOOOOooXX++++ooOOOOOO@@OOoooo@@ooXX++++XX  ",
"          XXOOOOOOOOOOooooXXXXXXOOOOOO@@oooooo@@ooooXXXX    ",
"          XXOOOOOOOOOOooooXXXXXXOOOOOO@@oooooo@@ooooXXXX    ",
"          XXOOOOOOOOooooooooooooooooooooooooooooooooXX      ",
"          XXOOOOOOOOooooooooooooooooooooooooooooooooXX      ",
"        XXXXOOOOoooooooooooooooooooooooo++++++++++++XX      ",
"        XXXXOOOOoooooooooooooooooooooooo++++++++++++XX      ",
"      XXOOXXooooooooooooOOOOooooXXoooo++++##++++##++XX      ",
"      XXOOXXooooooooooooOOOOooooXXoooo++++##++++##++XX      ",
"    XXOOXXXXooooooooooOOOOOOOOooooXXoo++++++++++++++XX      ",
"    XXOOXXXXooooooooooOOOOOOOOooooXXoo++++++++++++++XX      ",
"    XXXX  XXooooooooooooOOOOooooooooXXXXXXXXXXXXXXXX        ",
"    XXXX  XXooooooooooooOOOOooooooooXXXXXXXXXXXXXXXX        ",
"          XXOOOOOOOOooooooooooooooOOOOOOXX                  ",
"          XXOOOOOOOOooooooooooooooOOOOOOXX                  ",
"          XXOOOOOOOOOOOOOOOOOOOOOOOOOOOOXX                  ",
"          XXOOOOOOOOOOOOOOOOOOOOOOOOOOOOXX                  ",
"        ....XXOOOOXXXXXXXXOOOOXXXXXXOOOOXX....              ",
"        ....XXOOOOXXXXXXXXOOOOXXXXXXOOOOXX....              ",
"      ......XXOOOOXX....XXOOOOXX..XXOOOOXX......            ",
"      ......XXOOOOXX....XXOOOOXX..XXOOOOXX......            ",
"      ........XXXX........XXXX......XXXX........            ",
"      ........XXXX........XXXX......XXXX........            ",
"        ......................................              ",
"        ......................................              ",
"                                                            ",
"                                                            ",
"                                                            ",
"                                                            ",
"                                                            ",
"                                                            ",
"                                                            ",
"                                                            ",
"                                                            ",
"                                                            ",
"                                                            ",
"                                                            ",
"                                                            ",
"                                                            ",
"                                                            ",
"                                                            ",
"                                                            ",
"                                                            ",
"                                                            ",
"                                                            ",
"                                                            ",
"                                                            "
};
