/* XPM */
static char *c38e549312c94fe2e705b51235f52bcblPo2V0bqJS7Jt3TZ[] = {
/* columns rows colors chars-per-pixel */
"48 48 13 1 ",
"  c None",
". c None",
"X c #5F699C",
"o c #555793",
"O c #CBE0DE",
"+ c #92B2D4",
"@ c #7180B1",
"# c #67835C",
"$ c #C0D470",
"% c #78A158",
"& c #8DB15D",
"* c #566560",
"= c white",
/* pixels */
"                                                ",
"                                                ",
"                                                ",
"                                                ",
"                                                ",
"                                                ",
"                  XXXXXXXXXoooooo               ",
"                  XXXXXXXXXoooooo               ",
"                  XXXXXXXXXoooooo               ",
"               XXXOOOOOO+++++++++ooo            ",
"               XXXOOOOOO+++++++++ooo            ",
"               XXXOOOOOO+++++++++ooo            ",
"               XXXOOO@@@XXXXXX+++ooo            ",
"               XXXOOO@@@XXXXXX+++ooo            ",
"               XXXOOO@@@XXXXXX+++ooo            ",
"               XXX+++@@@@@@XXX+++ooo            ",
"               XXX+++@@@@@@XXX+++ooo            ",
"               XXX+++@@@@@@XXX+++ooo            ",
"               ooo+++@@@@@@XXX+++ooo            ",
"               ooo+++@@@@@@XXX+++ooo            ",
"               ooo+++@@@@@@XXX+++ooo            ",
"               ooo+++++++++++++++ooo            ",
"               ooo+++++++++++++++ooo            ",
"               ooo+++++++++++++++ooo            ",
"         #########ooooooooooooooo#########      ",
"         #########ooooooooooooooo#########      ",
"         #########ooooooooooooooo#########      ",
"         ###$$$$$$######%%%######$$$$$$###      ",
"         ###$$$$$$######%%%######$$$$$$###      ",
"         ###$$$$$$######%%%######$$$$$$###      ",
"         ###$$$&&&&&&&&&%%%&&&&&&&&&$$$###      ",
"         ###$$$&&&&&&&&&%%%&&&&&&&&&$$$###      ",
"         ###$$$&&&&&&&&&%%%&&&&&&&&&$$$###      ",
"         ...######&&&&&&###&&&&&&######...      ",
"         ...######&&&&&&###&&&&&&######...      ",
"         ...######&&&&&&###&&&&&&######...      ",
"            ......******...******......         ",
"            ......******...******......         ",
"            ......******...******......         ",
"                  ......   ......               ",
"                  ......   ......               ",
"                  ......   ......               ",
"                                                ",
"                                                ",
"                                                ",
"                                                ",
"                                                ",
"                                                "
};
