/* XPM */
static char *be238bf19e414228b3cbf12fcee6e1543xyhz6vojoQxNsbh[] = {
/* columns rows colors chars-per-pixel */
"48 48 9 1 ",
"  c None",
". c None",
"X c #8A4A70",
"o c #BD757E",
"O c #F3D8C5",
"+ c #AF6776",
"@ c #E8B5AC",
"# c #713970",
"$ c white",
/* pixels */
"                                                ",
"                                                ",
"                                                ",
"                                                ",
"                                                ",
"                                                ",
"                     XXXXXXXXXXXX               ",
"                     XXXXXXXXXXXX               ",
"                     XXXXXXXXXXXX               ",
"                  XXXooooooOOOOOOXXX            ",
"                  XXXooooooOOOOOOXXX            ",
"                  XXXooooooOOOOOOXXX            ",
"               XXXooooooOOOOOOOOOoooXXX         ",
"               XXXooooooOOOOOOOOOoooXXX         ",
"               XXXooooooOOOOOOOOOoooXXX         ",
"               XXX+++oooooooooooooooXXX         ",
"               XXX+++oooooooooooooooXXX         ",
"               XXX+++oooooooooooooooXXX         ",
"            XXX+++++++++ooooooooo+++@@@XXX      ",
"            XXX+++++++++ooooooooo+++@@@XXX      ",
"            XXX+++++++++ooooooooo+++@@@XXX      ",
"         XXXXXXXXX@@@@@@+++++++++@@@@@@XXX      ",
"         XXXXXXXXX@@@@@@+++++++++@@@@@@XXX      ",
"         XXXXXXXXX@@@@@@+++++++++@@@@@@XXX      ",
"      XXXoooooooooXXX@@@@@@++++++XXXXXX         ",
"      XXXoooooooooXXX@@@@@@++++++XXXXXX         ",
"      XXXoooooooooXXX@@@@@@++++++XXXXXX         ",
"   XXX+++ooooooooo+++XXXXXXXXXXXX               ",
"   XXX+++ooooooooo+++XXXXXXXXXXXX               ",
"   XXX+++ooooooooo+++XXXXXXXXXXXX               ",
"   XXX+++++++++++++++XXX@@@@@@###...            ",
"   XXX+++++++++++++++XXX@@@@@@###...            ",
"   XXX+++++++++++++++XXX@@@@@@###...            ",
"      XXXXXXXXXXXXXXX###OOOOOO###......         ",
"      XXXXXXXXXXXXXXX###OOOOOO###......         ",
"      XXXXXXXXXXXXXXX###OOOOOO###......         ",
"      ...###@@@###..................            ",
"      ...###@@@###..................            ",
"      ...###@@@###..................            ",
"   ......###OOO###...                           ",
"   ......###OOO###...                           ",
"   ......###OOO###...                           ",
"      ............                              ",
"      ............                              ",
"      ............                              ",
"                                                ",
"                                                ",
"                                                "
};
