/* XPM */
static char *_62fb3fcd9ca4d2affc3f682bd7cb509ynXEsdvFaJvinGx0[] = {
/* columns rows colors chars-per-pixel */
"48 48 10 1 ",
"  c None",
". c None",
"X c #694A87",
"o c #A77BB3",
"O c #90689F",
"+ c #583F83",
"@ c #8A4A70",
"# c #E8B5AC",
"$ c #F3D8C5",
"% c white",
/* pixels */
"                                                ",
"                                                ",
"                                                ",
"                                                ",
"                                                ",
"                                                ",
"                              XXXXXXXXX         ",
"                              XXXXXXXXX         ",
"                              XXXXXXXXX         ",
"                           XXXoooooooooXXX      ",
"                           XXXoooooooooXXX      ",
"                           XXXoooooooooXXX      ",
"                        XXXOOOOOOoooooooooXXX   ",
"                        XXXOOOOOOoooooooooXXX   ",
"                        XXXOOOOOOoooooooooXXX   ",
"                        XXXOOOOOOOOOOOOOOO+++   ",
"                        XXXOOOOOOOOOOOOOOO+++   ",
"                        XXXOOOOOOOOOOOOOOO+++   ",
"         XXXXXXXXX         +++++++++++++++      ",
"         XXXXXXXXX         +++++++++++++++      ",
"         XXXXXXXXX         +++++++++++++++      ",
"      XXXoooooooooXXX         @@@###@@@         ",
"      XXXoooooooooXXX         @@@###@@@         ",
"      XXXoooooooooXXX         @@@###@@@         ",
"   XXXOOOOOOoooooooooXXX   ...@@@$$$@@@...      ",
"   XXXOOOOOOoooooooooXXX   ...@@@$$$@@@...      ",
"   XXXOOOOOOoooooooooXXX   ...@@@$$$@@@...      ",
"   XXXOOOOOOOOOOOOOOO+++      .........         ",
"   XXXOOOOOOOOOOOOOOO+++      .........         ",
"   XXXOOOOOOOOOOOOOOO+++      .........         ",
"      +++++++++++++++                           ",
"      +++++++++++++++                           ",
"      +++++++++++++++                           ",
"         @@@###@@@                              ",
"         @@@###@@@                              ",
"         @@@###@@@                              ",
"      ...@@@$$$@@@...                           ",
"      ...@@@$$$@@@...                           ",
"      ...@@@$$$@@@...                           ",
"         .........                              ",
"         .........                              ",
"         .........                              ",
"                                                ",
"                                                ",
"                                                ",
"                                                ",
"                                                ",
"                                                "
};
