/* XPM */
static char *_e669e942ec04093d0264ba931701f9dNRAx5oLLqgaaZiCQ[] = {
/* columns rows colors chars-per-pixel */
"48 48 9 1 ",
"  c None",
". c #6B7470",
"X c #C1C8B9",
"o c #9DA89A",
"O c #818B83",
"+ c #545959",
"@ c #54575E",
"# c #F3F4E7",
"$ c white",
/* pixels */
"                                                ",
"                                                ",
"                                                ",
"                                                ",
"                                                ",
"                                                ",
"                                                ",
"                                                ",
"                                                ",
"                     .........                  ",
"                     .........                  ",
"                     .........                  ",
"               ......XXXXXXXXX...               ",
"               ......XXXXXXXXX...               ",
"               ......XXXXXXXXX...               ",
"         ......XXXXXXXXXXXXXXXXXX...            ",
"         ......XXXXXXXXXXXXXXXXXX...            ",
"         ......XXXXXXXXXXXXXXXXXX...            ",
"      ...XXXoooooooooXXXXXXXXXOOO...            ",
"      ...XXXoooooooooXXXXXXXXXOOO...            ",
"      ...XXXoooooooooXXXXXXXXXOOO...            ",
"   +++XXXXXXXXXooooooooooooOOOOOOooo...         ",
"   +++XXXXXXXXXooooooooooooOOOOOOooo...         ",
"   +++XXXXXXXXXooooooooooooOOOOOOooo...         ",
"   +++XXXXXXXXXXXXXXXooooooOOOooooooooo...      ",
"   +++XXXXXXXXXXXXXXXooooooOOOooooooooo...      ",
"   +++XXXXXXXXXXXXXXXooooooOOOooooooooo...      ",
"   +++OOOXXXXXXXXXXXXXXXXXXooooooooooooooo+++   ",
"   +++OOOXXXXXXXXXXXXXXXXXXooooooooooooooo+++   ",
"   +++OOOXXXXXXXXXXXXXXXXXXooooooooooooooo+++   ",
"   +++OOOOOOXXXXXXXXXXXXXXXXXX...ooooooOOO+++   ",
"   +++OOOOOOXXXXXXXXXXXXXXXXXX...ooooooOOO+++   ",
"   +++OOOOOOXXXXXXXXXXXXXXXXXX...ooooooOOO+++   ",
"   +++OOOOOOOOOOOOXXXXXXXXXXXXOOO...OOOOOO@@@###",
"   +++OOOOOOOOOOOOXXXXXXXXXXXXOOO...OOOOOO@@@###",
"   +++OOOOOOOOOOOOXXXXXXXXXXXXOOO...OOOOOO@@@###",
"###@@@OOOOOOOOOOOOOOOOOOOOOOOOOOO...#########   ",
"###@@@OOOOOOOOOOOOOOOOOOOOOOOOOOO...#########   ",
"###@@@OOOOOOOOOOOOOOOOOOOOOOOOOOO...#########   ",
"   #########OOOOOOOOOOOOOOOOOOOOO###            ",
"   #########OOOOOOOOOOOOOOOOOOOOO###            ",
"   #########OOOOOOOOOOOOOOOOOOOOO###            ",
"            #####################               ",
"            #####################               ",
"            #####################               ",
"                                                ",
"                                                ",
"                                                "
};
