/* XPM */
static char *_4b1ce4d62c04b40963ed2708bf6c79erAjz8RNfYeMKYimw[] = {
/* columns rows colors chars-per-pixel */
"48 48 7 1 ",
"  c None",
". c #90625D",
"X c #DCB98A",
"o c #E8CFA6",
"O c #B68962",
"+ c #C49A6C",
"@ c white",
/* pixels */
"                                                ",
"                                                ",
"                                                ",
"                                                ",
"                                                ",
"                                                ",
"                                                ",
"                                                ",
"                                                ",
"                                                ",
"                                                ",
"                                                ",
"                  ............                  ",
"                  ............                  ",
"                  ............                  ",
"               ...XXXXXXXXXXXX...               ",
"               ...XXXXXXXXXXXX...               ",
"               ...XXXXXXXXXXXX...               ",
"            ...XXXXXXXXXXXXXXXXXX...            ",
"            ...XXXXXXXXXXXXXXXXXX...            ",
"            ...XXXXXXXXXXXXXXXXXX...            ",
"            ...oooXXXXXXXXXXXXooo...            ",
"            ...oooXXXXXXXXXXXXooo...            ",
"            ...oooXXXXXXXXXXXXooo...            ",
"            ...OOOooooooooooooOOO...            ",
"            ...OOOooooooooooooOOO...            ",
"            ...OOOooooooooooooOOO...            ",
"            ...OOOOOOOOOOOOOOOOOO...            ",
"            ...OOOOOOOOOOOOOOOOOO...            ",
"            ...OOOOOOOOOOOOOOOOOO...            ",
"            ...OOO+++OOO+++++++++...            ",
"            ...OOO+++OOO+++++++++...            ",
"            ...OOO+++OOO+++++++++...            ",
"         ...++++++++++++++++++++++++...         ",
"         ...++++++++++++++++++++++++...         ",
"         ...++++++++++++++++++++++++...         ",
"            ++++++++++++++++++++++++            ",
"            ++++++++++++++++++++++++            ",
"            ++++++++++++++++++++++++            ",
"                     ++++++                     ",
"                     ++++++                     ",
"                     ++++++                     ",
"                                                ",
"                                                ",
"                                                ",
"                                                ",
"                                                ",
"                                                "
};
